<svg width="196.000000" height="24.000000" viewBox="0 0 196 24" fill="none" xmlns="http://www.w3.org/2000/svg" xmlns:xlink="http://www.w3.org/1999/xlink">
    <defs/>
    <path id="Inctagram" d="M-0.14 -0.91L3.28 -0.91L3.28 18L-0.14 18L-0.14 -0.91ZM42.01 3.81L44.8 3.81L44.8 6.4L42.01 6.4L42.01 13.73C42.01 15.08 42.68 15.37 43.52 15.37C43.94 15.37 44.32 15.29 44.5 15.25L45.07 17.86C44.7 17.98 44.05 18.16 43.1 18.19C40.58 18.26 38.65 16.95 38.67 14.28L38.67 6.4L36.65 6.4L36.65 3.81L38.67 3.81L38.67 0.42L42.01 0.42L42.01 3.81ZM82.14 18L78.8 18L78.8 3.81L82.04 3.81L82.04 6.18L82.19 6.18C82.71 4.53 84.07 3.61 85.69 3.61C86.06 3.61 86.59 3.65 86.89 3.7L86.89 6.78C86.61 6.68 85.9 6.58 85.34 6.58C83.5 6.58 82.14 7.86 82.14 9.66L82.14 18ZM13.2 6.45C11.44 6.45 10.2 7.64 10.2 9.69L10.2 18L6.86 18L6.86 3.81L10.05 3.81L10.05 6.22L10.22 6.22C10.87 4.65 12.33 3.63 14.45 3.63C17.37 3.63 19.32 5.57 19.3 8.96L19.3 18L15.96 18L15.96 9.48C15.96 7.59 14.93 6.45 13.2 6.45ZM34.97 13.15C34.73 16.16 32.46 18.27 28.9 18.27C24.66 18.27 22.11 15.25 22.11 10.96C22.11 6.63 24.73 3.63 28.88 3.63C32.34 3.63 34.74 5.65 34.97 8.73L31.78 8.73C31.52 7.36 30.53 6.32 28.92 6.32C26.87 6.32 25.49 8.04 25.49 10.9C25.49 13.81 26.84 15.55 28.92 15.55C30.4 15.55 31.49 14.67 31.78 13.15L34.97 13.15ZM55.85 16.05C55.24 17.24 53.91 18.28 51.68 18.28C48.98 18.28 46.94 16.8 46.94 14.02C46.94 10.82 49.57 10 52.32 9.7C54.82 9.44 55.83 9.39 55.83 8.43L55.83 8.37C55.83 6.98 54.98 6.19 53.43 6.19C51.8 6.19 50.86 7.02 50.52 7.98L47.4 7.54C48.14 4.96 50.43 3.63 53.41 3.63C56.12 3.63 59.17 4.75 59.17 8.51L59.17 18L55.96 18L55.96 16.05L55.85 16.05ZM75.37 18.22C75.37 21.85 72.54 23.61 68.71 23.61C65.1 23.61 63.06 22.01 62.45 20.03L65.46 19.3C65.87 20.13 66.75 21.08 68.77 21.08C70.67 21.08 72.05 20.22 72.05 18.13L72.05 15.45L71.89 15.45C71.37 16.49 70.23 17.79 67.81 17.79C64.54 17.79 61.96 15.48 61.96 10.86C61.96 6.19 64.54 3.63 67.81 3.63C70.32 3.63 71.38 5.13 71.89 6.16L72.07 6.16L72.07 3.81L75.37 3.81L75.37 18.22ZM97.09 16.05C96.48 17.24 95.15 18.28 92.93 18.28C90.22 18.28 88.18 16.8 88.18 14.02C88.18 10.82 90.81 10 93.57 9.7C96.07 9.44 97.08 9.39 97.08 8.43L97.08 8.37C97.08 6.98 96.23 6.19 94.67 6.19C93.04 6.19 92.1 7.02 91.76 7.98L88.65 7.54C89.38 4.96 91.67 3.63 94.65 3.63C97.36 3.63 100.42 4.75 100.42 8.51L100.42 18L97.2 18L97.2 16.05L97.09 16.05ZM107.13 18L103.79 18L103.79 3.81L106.98 3.81L106.98 6.22L107.15 6.22C107.74 4.61 109.16 3.63 111.06 3.63C112.97 3.63 114.35 4.61 114.89 6.22L115.04 6.22C115.67 4.65 117.24 3.63 119.3 3.63C121.9 3.63 123.73 5.31 123.73 8.47L123.73 18L120.38 18L120.38 8.99C120.38 7.24 119.31 6.44 117.96 6.44C116.35 6.44 115.39 7.55 115.39 9.15L115.39 18L112.12 18L112.12 8.85C112.12 7.39 111.15 6.44 109.73 6.44C108.29 6.44 107.13 7.63 107.13 9.37L107.13 18ZM65.37 10.84C65.37 13.45 66.53 15.17 68.74 15.17C70.87 15.17 72.07 13.55 72.07 10.84C72.07 8.15 70.89 6.37 68.74 6.37C66.51 6.37 65.37 8.26 65.37 10.84ZM188.08 9.69C188.08 10.15 187.68 10.52 187.19 10.52C186.69 10.52 186.29 10.15 186.29 9.69C186.29 9.22 186.69 8.85 187.19 8.85C187.68 8.85 188.08 9.22 188.08 9.69ZM132.26 11.45L131.24 11.45C131.14 10.59 130.34 10.08 129.28 10.08C128.12 10.08 127.35 10.7 127.35 11.54C127.35 12.47 128.39 12.81 129.04 12.98L129.93 13.22C130.83 13.46 132.38 13.99 132.38 15.62C132.38 17.04 131.24 18.15 129.23 18.15C127.35 18.15 126.2 17.18 126.09 15.75L127.18 15.75C127.27 16.73 128.19 17.2 129.23 17.2C130.44 17.2 131.36 16.56 131.36 15.61C131.36 14.74 130.54 14.41 129.62 14.16L128.55 13.85C127.18 13.46 126.33 12.76 126.33 11.58C126.33 10.12 127.64 9.15 129.31 9.15C131 9.15 132.22 10.13 132.26 11.45ZM161.5 15.84L160.78 18L159.1 18L162.17 9.27L164.12 9.27L167.2 18L165.51 18L164.78 15.84L161.5 15.84ZM172.38 16.96C172.14 17.44 171.63 18.11 170.51 18.11C168.96 18.11 167.81 16.89 167.81 14.73C167.81 12.55 169 11.37 170.51 11.37C171.66 11.37 172.15 12.06 172.38 12.53L172.44 12.53L172.44 9.27L173.99 9.27L173.99 18L172.47 18L172.47 16.96L172.38 16.96ZM163.11 11.06L161.93 14.57L164.36 14.57L163.18 11.06L163.11 11.06ZM50.16 13.96C50.16 15.19 51.16 15.82 52.55 15.82C54.56 15.82 55.84 14.48 55.84 12.91L55.84 11.23C55.41 11.59 53.65 11.81 52.77 11.93C51.28 12.14 50.16 12.68 50.16 13.96ZM91.4 13.96C91.4 15.19 92.4 15.82 93.8 15.82C95.81 15.82 97.08 14.48 97.08 12.91L97.08 11.23C96.65 11.59 94.89 11.81 94.02 11.93C92.52 12.14 91.4 12.68 91.4 13.96ZM156.26 18L155.26 18L155.26 11.45L156.23 11.45L156.23 12.44L156.3 12.44C156.54 11.79 157.22 11.35 158 11.35C158.15 11.35 158.41 11.36 158.53 11.37L158.53 12.39C158.46 12.37 158.18 12.32 157.92 12.32C156.96 12.32 156.26 12.97 156.26 13.85L156.26 18ZM141.96 20.45L140.96 20.45L140.96 11.45L141.93 11.45L141.93 12.49L142.05 12.49C142.27 12.15 142.66 11.37 143.94 11.37C145.59 11.37 146.74 12.68 146.74 14.74C146.74 16.82 145.59 18.13 143.96 18.13C142.7 18.13 142.27 17.35 142.05 16.99L141.96 16.99L141.96 20.45ZM153.62 16.48C153.31 17.47 152.34 18.13 151.01 18.13C149.12 18.13 147.96 16.79 147.96 14.77C147.96 12.76 149.14 11.37 150.91 11.37C152.27 11.37 153.72 12.2 153.72 14.64L153.72 15.06L148.97 15.06C149.02 16.47 149.83 17.23 151.01 17.23C151.8 17.23 152.39 16.89 152.65 16.2L153.62 16.48ZM177.18 18L175.64 18L175.64 11.45L177.11 11.45L177.11 12.56L177.19 12.56C177.46 11.82 178.12 11.37 179 11.37C179.88 11.37 180.52 11.82 180.76 12.56L180.83 12.56C181.12 11.83 181.85 11.37 182.8 11.37C184 11.37 184.84 12.14 184.84 13.6L184.84 18L183.3 18L183.3 13.84C183.3 13.03 182.8 12.66 182.18 12.66C181.44 12.66 181 13.18 181 13.91L181 18L179.48 18L179.48 13.78C179.48 13.1 179.04 12.66 178.38 12.66C177.72 12.66 177.18 13.21 177.18 14.01L177.18 18ZM192.47 12.67C191.65 12.67 191.08 13.21 191.08 14.16L191.08 18L189.54 18L189.54 11.45L191.01 11.45L191.01 12.56L191.09 12.56C191.39 11.83 192.06 11.37 193.04 11.37C194.39 11.37 195.29 12.26 195.28 13.83L195.28 18L193.74 18L193.74 14.07C193.74 13.19 193.26 12.67 192.47 12.67ZM136.42 17.11C137.17 17.11 138.11 16.54 138.11 15.32L138.11 11.45L139.11 11.45L139.11 18L138.11 18L138.11 16.89L138.04 16.89C137.73 17.55 137.09 18.08 136.1 18.08C134.87 18.08 133.98 17.28 133.98 15.61L133.98 11.45L134.99 11.45L134.99 15.54C134.99 16.5 135.59 17.11 136.42 17.11ZM187.95 18L186.41 18L186.41 11.45L187.95 11.45L187.95 18ZM143.82 12.27C142.59 12.27 141.95 13.26 141.95 14.72C141.95 16.2 142.61 17.23 143.82 17.23C145.08 17.23 145.73 16.12 145.73 14.72C145.73 13.34 145.1 12.27 143.82 12.27ZM150.91 12.27C149.76 12.27 149.04 13.18 148.97 14.2L152.7 14.2C152.7 13.08 152 12.27 150.91 12.27ZM169.38 14.72C169.38 15.95 169.92 16.84 170.94 16.84C171.92 16.84 172.47 15.99 172.47 14.72C172.47 13.45 171.93 12.63 170.94 12.63C169.91 12.63 169.38 13.5 169.38 14.72Z" fill="#FFFFFF" fill-opacity="1.000000" fill-rule="evenodd"/>
</svg>

